<?xml version="1.0" encoding="UTF-8"?><svg id="_이어_1" xmlns="http://www.w3.org/2000/svg" viewBox="0 0 390.45 263.77"><defs><style>.cls-1{fill:#fff;}.cls-2{fill:#006940;}.cls-3{fill:#b8babe;}</style></defs><rect class="cls-2" x="2.92" y="115.72" width="29.09" height="88.58" rx="14.55" ry="14.55"/><rect class="cls-2" x="220.67" y="115.93" width="29.09" height="88.58" rx="14.55" ry="14.55"/><rect class="cls-3" x="1.4" y="76.85" width="30.83" height="30.83" rx="12" ry="12" transform="translate(70.17 15.14) rotate(45)"/><rect class="cls-3" x="219.81" y="76.85" width="30.83" height="30.83" rx="12" ry="12" transform="translate(134.14 -139.3) rotate(45)"/><rect class="cls-2" x="159.45" y="26.05" width="29.09" height="180.63" rx="14.55" ry="14.55"/><rect class="cls-2" x="361.36" y="1.74" width="29.09" height="180.63" rx="14.55" ry="14.55"/><polygon class="cls-2" points="31.75 38.53 31.75 37.65 33.06 35.91 35.68 34.59 40.05 33.72 44.85 34.59 47.47 35.91 48.34 37.65 48.34 38.53 70.18 185.71 71.06 189.21 73.24 194.01 74.99 197.51 77.61 200.56 80.66 203.18 84.59 205.37 89.84 206.68 95.51 207.55 101.19 207.55 105.12 206.24 109.49 203.18 114.29 197.51 117.79 190.95 120.41 180.47 130.45 134.18 144.43 54.25 146.18 37.65 147.49 35.03 149.23 33.28 150.98 32.85 153.17 32.41 155.79 32.85 156.66 33.28 157.97 34.16 158.84 35.47 159.28 36.78 159.72 39.4 159.72 42.02 174.13 45.95 188.54 38.96 188.11 35.47 187.67 33.28 186.8 30.23 185.49 25.42 183.3 21.06 181.12 18 178.5 14.94 174.57 11.01 170.64 8.83 164.96 6.64 159.28 5.33 154.91 4.9 147.05 5.33 143.99 5.77 139.19 7.52 136.13 9.26 132.86 11.23 129.36 13.85 125.87 17.34 123.25 20.84 120.63 25.2 118.88 33.07 103.59 145.75 100.97 159.73 99.66 161.91 97.48 162.78 95.3 161.91 94.42 160.6 91.8 145.75 80.88 67.13 76.51 33.94 75.2 27.39 73.46 23.02 70.84 19.09 66.91 14.72 61.23 10.35 56.42 7.3 52.49 5.55 47.25 4.24 38.08 2.93 31.97 3.37 28.03 4.24 22.36 5.99 19.74 6.86 16.24 8.61 13.18 10.79 10.56 13.41 7.94 16.47 5.76 20.4 3.58 26.08 2.7 33.07 2.7 57.96 3.14 60.58 4.45 62.77 6.2 64.51 8.38 66.7 11.44 68.01 14.93 68.88 17.12 68.88 21.05 68.88 23.23 68.44 26.29 66.26 29.34 63.2 30.65 60.58 31.97 56.65 31.75 38.53"/><polygon class="cls-2" points="228.92 66 227.19 65.13 225.02 63.83 223.28 61.22 222.41 59.05 221.54 56.01 220.67 52.1 220.67 47.76 220.67 33 221.98 29.09 223.28 26.05 225.02 22.58 226.75 19.54 228.92 16.07 231.1 13.46 234.57 9.55 237.61 7.38 241.52 4.78 246.73 2.61 251.07 1.3 258.45 .43 263.66 0 270.17 .43 274.52 1.3 278.86 2.61 281.46 3.47 284.5 5.21 287.54 7.38 290.58 9.99 292.75 12.16 294.92 14.76 297.53 18.24 299.27 22.58 301 26.49 342.25 165 343.12 168.04 343.99 169.34 345.29 170.21 347.03 171.08 349.2 171.51 352.67 171.95 355.71 171.51 357.45 171.08 358.75 170.21 359.62 169.34 360.49 168.47 360.92 167.6 361.36 158.41 378.73 154.58 390.37 169.36 388.71 175.85 387.41 180.2 385.67 184.1 384.37 186.28 382.2 188.88 379.16 191.92 376.12 194.52 372.65 196.7 369.17 198.43 364.83 199.74 360.06 200.6 353.98 201.04 347.9 200.6 343.56 200.17 339.21 199.3 334 197.13 330.09 194.96 326.62 191.92 324.23 189.53 322.06 186.93 319.89 183.45 318.15 179.54 315.98 173.47 272.56 34.95 271.69 32.78 270.39 31.05 268.65 30.18 264.31 29.31 259.54 29.74 257.8 30.61 255.63 32.35 253.89 34.95 252.59 38.86 251.29 45.81 250.42 54.06 249.55 57.97 248.68 60.14 246.94 62.31 244.77 64.05 242.17 65.35 239.56 66.22 236.09 66.65 232.62 66.65 228.92 66"/><g><path class="cls-1" d="M6.35,242.09c0-8.33,2.3-15.19,6.24-21.64l3.85,1.63c-3.52,6.11-5.11,13.18-5.11,20.01s1.59,13.94,5.11,20.05l-3.85,1.63c-3.93-6.49-6.24-13.27-6.24-21.68Z"/><path class="cls-1" d="M55.28,246.06h-14.78v12.93h-5.52v-12.93h-14.52v-4.39H55.28v4.39Zm-33.19-10.92c7.87-.96,11.97-4.73,12.51-8.41h-11.09v-4.39h28.59v4.39h-10.92c.54,3.68,4.6,7.45,12.43,8.41l-1.97,4.31c-6.74-.92-11.47-3.81-13.77-7.74-2.3,3.93-7.03,6.82-13.77,7.74l-2.01-4.31Z"/><path class="cls-1" d="M59.3,262.13c3.52-6.11,5.11-13.14,5.11-20.05s-1.59-13.9-5.11-20.01l3.81-1.63c3.98,6.45,6.28,13.31,6.28,21.64s-2.3,15.19-6.28,21.68l-3.81-1.63Z"/><path class="cls-1" d="M119.16,249.95v4.48h-34.91v-4.48h14.65v-7.83h-10.97v-18.92h27.42v18.92h-10.92v7.83h14.73Zm-25.82-12.18h16.62v-10.21h-16.62v10.21Z"/><path class="cls-1" d="M143.44,238.99h-18.75v-16.99h5.48v4.35h7.83v-4.35h5.44v16.99Zm12.31,15.49v4.14h-26.62v-10.42h20.17v-2.22h-20.22v-4.14h25.7v10.25h-20.17v2.39h21.14Zm-17.75-23.98h-7.83v4.19h7.83v-4.19Zm16.74,9.67h-5.52v-19.8h5.52v19.8Z"/><path class="cls-1" d="M168.97,245.48c5.86-.04,10.71-.33,16.16-1.26l.59,4.48c-6.28,1.09-11.93,1.34-18.92,1.34h-3.47v-15.86h12.51v-6.15h-12.56v-4.4h18.21v14.9h-12.51v6.95Zm24.36-25.15v38.67h-5.52v-38.67h5.52Z"/><path class="cls-1" d="M207.36,245.77c5.73-.04,10.38-.25,15.65-1.05l.5,4.39c-6.03,.92-11.43,1.09-18.33,1.09h-3.35v-26.66h19.5v4.48h-13.98v6.28h12.39v4.31h-12.39v7.16Zm24.53-25.41v38.59h-5.57v-38.59h5.57Z"/><path class="cls-1" d="M245.2,244.97c3.47-.08,6.7-.33,10.25-1l.67,4.6c-4.6,.96-8.79,1.13-13.64,1.13h-2.68v-25.66h5.4v20.93Zm12.85-23.98h5.15v36.21h-5.15v-20.22h-7.58v-4.48h7.58v-11.51Zm13.39-.67v38.55h-5.23v-38.55h5.23Z"/><path class="cls-1" d="M311.71,250v4.48h-34.91v-4.48h34.91Zm-3.73-5.4h-27.08v-21.43h26.79v4.44h-21.18v4.06h20.3v4.27h-20.3v4.31h21.47v4.35Z"/><path class="cls-1" d="M324.32,239.91c-3.05,.12-5.94,.17-8.5,.17l-.67-4.27c6.91,0,16.41-.13,24.49-1.21l.38,3.77c-3.35,.63-6.78,.96-10.17,1.26v6.07h-5.53v-5.78Zm-6.36-12.26c0-3.81,3.93-6.36,9.63-6.36s9.63,2.55,9.63,6.36-3.93,6.4-9.63,6.4-9.63-2.55-9.63-6.4Zm2.43,19.59h27.37v11.72h-5.53v-7.37h-21.85v-4.35Zm2.68-19.59c0,1.67,1.76,2.55,4.52,2.55s4.48-.88,4.48-2.55-1.72-2.51-4.48-2.51-4.52,.88-4.52,2.51Zm24.69-7.24v25.45h-5.53v-1.42h-7.62v-3.77h7.62v-20.26h5.53Z"/><path class="cls-1" d="M388.74,249.75v4.48h-34.91v-4.48h34.91Zm-3.56-6.61c-6.7-1.34-11.64-5.06-14.11-9.96-2.47,4.9-7.37,8.66-14.06,9.96l-2.34-4.65c8.66-1.47,13.48-7.58,13.48-13.1v-2.76h5.9v2.76c0,5.65,4.77,11.63,13.48,13.1l-2.34,4.65Z"/></g></svg>