<svg xmlns="http://www.w3.org/2000/svg" viewBox="0 0 1413.43 658.44"><defs><style>.cls-1{fill:#fff;}</style></defs><g id="레이어_2" data-name="레이어 2"><g id="Layer_1" data-name="Layer 1"><path class="cls-1" d="M1147.35,219.34h-87.43c-11.41,0-25.26-9.3-39-26.18l-3.41-4.21,3.41-4.2c13.72-16.89,27.57-26.19,39-26.19h87.43a79.28,79.28,0,1,0,0-158.56H1029.66C1000.93,0,958,10.65,916.79,61.39l-2.17,2.68C887.2,36.31,859.15,20,833.19,10.75l-.25-.09c-3.15-1.12-6.28-2.12-9.36-3l-.46-.13c-3-.89-6-1.68-9-2.39L813.52,5c-2.9-.68-5.76-1.29-8.58-1.81l-.7-.13Q800.06,2.25,796,1.7l-.71-.1C792.6,1.25,790,1,787.36.72l-.62,0q-3.93-.33-7.69-.5h-.4c-2.57-.1-5.09-.16-7.53-.16H621.72C583.8,0,529.87,11.77,478.23,64.08L476,61.32C434.8,10.64,391.91,0,363.18,0H245.5a79.28,79.28,0,1,0,0,158.56h87.43c11.41,0,25.26,9.3,39,26.17l3.42,4.22-3.4,4.2c-13.73,16.89-27.58,26.19-39,26.19H245.5a79.28,79.28,0,1,0,0,158.56H363.18c28.73,0,71.62-10.63,112.84-61.34l2.19-2.72c51.64,52.32,105.58,64.06,143.51,64.06h149.4c37.9,0,91.8-11.77,143.48-64.09l2.21,2.73c41.23,50.72,84.12,61.36,112.85,61.36h117.69a79.28,79.28,0,1,0,0-158.56Zm0-92.49h-87.43c-21.17,0-42.85,12.78-62.77,36.93L970.78,131.2l12.72-15.71c11-13.5,27.89-29.6,46.17-29.6h164.74A47.61,47.61,0,0,1,1147.35,126.85ZM1029.66,31.71h117.69a47.62,47.62,0,0,1,47.06,41H1029.67c-23.48,0-43.64,18.76-56.43,34.5l-11,13.54L935.92,88.16l5.5-6.79C974.78,40.33,1007.82,31.71,1029.66,31.71Zm-407.94,0h149.4q3.28,0,6.77.16c1.53.07,3.14.2,4.73.32.78.06,1.54.09,2.33.17,2.28.21,4.61.48,7,.81l.39,0C825,37.88,866.1,54.63,905.22,100.87c1.14,1.35,2.29,2.59,3.42,4l87.69,108.29A133.06,133.06,0,0,0,1019.64,236c13.25,9.89,26.87,15,40.28,15h87.43a47.62,47.62,0,0,1,47.06,41H1029.67a36.15,36.15,0,0,1-13.38-2.73,63.65,63.65,0,0,1-16.77-10.4,120.47,120.47,0,0,1-16-16.47L960.58,234.1h0L876.8,130.63c-38.94-47.9-78.95-58-105.68-58H621.72c-24.83,0-61.14,8.73-97.37,48.37L498.39,89C543.25,42.27,589.5,31.71,621.72,31.71Zm-376.22,0H363.18c21.85,0,54.88,8.61,88.19,49.59L558.16,213.19c20.13,24.77,42.11,37.86,63.56,37.86h149.4c21.16,0,42.83-12.77,62.78-36.92l26.2,32.36c-33.5,37.38-66.56,45.53-89,45.53H621.72c-23.85,0-59.76-9.2-95.37-53L419.56,107.11c-12.77-15.71-32.92-34.44-56.38-34.44H198.44A47.6,47.6,0,0,1,245.5,31.71ZM813.51,189l-3.4,4.2c-13.73,16.89-27.57,26.19-39,26.19H621.72c-11.41,0-25.24-9.28-38.93-26.12L579.34,189l3.43-4.24c13.71-16.86,27.54-26.15,39-26.15h149.4c11.42,0,25.26,9.3,39,26.17Zm-568,62.1h87.43c21.16,0,42.83-12.77,62.77-36.92l26.37,32.57-12.76,15.76c-11,13.48-27.86,29.56-46.13,29.56H198.44A47.6,47.6,0,0,1,245.5,251.05Zm117.68,95.14H245.5a47.59,47.59,0,0,1-47.06-41H363.18c23.47,0,43.61-18.73,56.39-34.45l11-13.58,26.35,32.54-5.53,6.84C418.06,337.58,385,346.19,363.18,346.19Zm407.94,0H621.72c-35.61,0-88.36-12.67-137.4-73L396.53,164.75c-20.16-24.79-42.15-37.9-63.6-37.9H245.5a47.59,47.59,0,0,1-47.06-41H363.18c18.27,0,35.17,16.07,46.12,29.54L516.09,247.32C555,295.18,595,305.23,621.72,305.23h149.4c24.83,0,61.12-8.73,97.37-48.36l26,32C849.54,335.63,803.32,346.19,771.12,346.19Zm376.23,0H1029.66c-21.84,0-54.88-8.61-88.22-49.63L844.11,176.35h0l-9.39-11.6c-20.16-24.79-42.14-37.9-63.6-37.9H621.72c-21.17,0-42.84,12.77-62.77,36.92l-26.2-32.36c33.47-37.38,66.55-45.52,89-45.52h149.4c23.86,0,59.77,9.21,95.42,53.06L973.25,270.74a130.29,130.29,0,0,0,19,19.2,74.71,74.71,0,0,0,20.53,12.11,48.24,48.24,0,0,0,16.91,3.18h164.75A47.61,47.61,0,0,1,1147.35,346.19Z"/><path class="cls-1" d="M80.26,654.36a5.13,5.13,0,0,1-5.13-5.12V623.05L44.81,636.83a5.14,5.14,0,0,1-4.24,0L10.25,623.05v26.19a5.13,5.13,0,0,1-10.25,0V615.09a5.12,5.12,0,0,1,7.24-4.66l35.45,16.11,35.45-16.11a5.1,5.1,0,0,1,4.89.35,5.15,5.15,0,0,1,2.35,4.31v34.15A5.12,5.12,0,0,1,80.26,654.36Z"/><path class="cls-1" d="M159.41,656.86h-41a22.2,22.2,0,0,1,0-44.4h41a22.2,22.2,0,1,1,0,44.4Zm-41-34.15a11.95,11.95,0,0,0,0,23.9h41a11.95,11.95,0,1,0,0-23.9Z"/><path class="cls-1" d="M274.83,626.92a13.68,13.68,0,0,0-13.66-13.66h-66.6a5.12,5.12,0,0,0,0,10.24h66.6a3.42,3.42,0,0,1,0,6.83h-66.6a5.13,5.13,0,0,0,0,10.25h66.6a3.42,3.42,0,0,1,0,6.83h-66.6a5.13,5.13,0,0,0,0,10.25h66.6a13.65,13.65,0,0,0,10.65-22.2A13.59,13.59,0,0,0,274.83,626.92Z"/><path class="cls-1" d="M293.37,656.73a5.12,5.12,0,0,1-5.12-5.12V617.46a5.13,5.13,0,1,1,10.25,0v34.15A5.13,5.13,0,0,1,293.37,656.73Z"/><path class="cls-1" d="M393.47,656.73H318.33a5.12,5.12,0,0,1-5.12-5.12V617.46a5.12,5.12,0,0,1,10.24,0v29h70a5.12,5.12,0,0,1,0,10.24Z"/><path class="cls-1" d="M415.67,657.44a5.12,5.12,0,0,1-5.12-5.12V618.17a5.12,5.12,0,1,1,10.24,0v34.15A5.12,5.12,0,0,1,415.67,657.44Z"/><path class="cls-1" d="M496.71,614H436.94a5.13,5.13,0,0,0,0,10.25H461.7v29a5.13,5.13,0,0,0,10.25,0v-29h24.76a5.13,5.13,0,0,0,0-10.25Z"/><path class="cls-1" d="M580.73,616a5.12,5.12,0,0,0-7-1.9L546.4,629.76l-27.34-15.62A5.12,5.12,0,1,0,514,623l27.3,15.6v14.11a5.13,5.13,0,0,0,10.25,0V638.63l27.3-15.6A5.12,5.12,0,0,0,580.73,616Z"/><path class="cls-1" d="M746.91,656.36a5.09,5.09,0,0,1-2.12-.46L676.9,625.05v26.19a5.13,5.13,0,0,1-10.25,0V617.09a5.12,5.12,0,0,1,7.24-4.66l67.9,30.86v-26.2a5.12,5.12,0,0,1,10.24,0v34.15a5.11,5.11,0,0,1-5.12,5.12Z"/><path class="cls-1" d="M920.61,613.21H860.84a5.13,5.13,0,0,0,0,10.25H885.6v29a5.13,5.13,0,0,0,10.25,0v-29h24.76a5.13,5.13,0,0,0,0-10.25Z"/><path class="cls-1" d="M1015,656.86a5.11,5.11,0,0,1-4.1-2.05L989.4,626.12l-21.51,28.69a5.13,5.13,0,0,1-8.2,0l-25.61-34.15a5.12,5.12,0,1,1,8.19-6.15l21.52,28.69,21.51-28.69a5.13,5.13,0,0,1,8.2,0L1015,643.2l21.51-28.69a5.13,5.13,0,0,1,8.2,6.15l-25.62,34.15A5.1,5.1,0,0,1,1015,656.86Z"/><path class="cls-1" d="M1112.44,656.36h-41a22.2,22.2,0,0,1,0-44.39h41a22.2,22.2,0,0,1,0,44.39Zm-41-34.15a12,12,0,0,0,0,23.91h41a12,12,0,0,0,0-23.91Z"/><path class="cls-1" d="M1223.68,647.65l-16-7.29H1213a13.66,13.66,0,1,0,0-27.32h-66.59a5.13,5.13,0,1,0,0,10.25H1213a3.42,3.42,0,1,1,0,6.83h-66.59a5.12,5.12,0,0,0-5.13,5.12v17.08a5.13,5.13,0,0,0,10.25,0v-12h31.33L1219.44,657a5.16,5.16,0,0,0,2.12.46,5.13,5.13,0,0,0,2.12-9.79Z"/><path class="cls-1" d="M1318,648.07l-27.3-12.41,27.3-12.41a5.12,5.12,0,1,0-4.24-9.33l-67.89,30.86v-26.2a5.12,5.12,0,1,0-10.24,0v34.16a5.12,5.12,0,0,0,7.24,4.66l35.45-16.11,35.44,16.11a5.12,5.12,0,1,0,4.24-9.33Z"/><path class="cls-1" d="M1399.77,656.44h-64.89a5.12,5.12,0,1,1,0-10.24h64.89a3.42,3.42,0,0,0,0-6.83h-58.06a13.67,13.67,0,0,1,0-27.33h64.89a5.13,5.13,0,0,1,0,10.25h-64.89a3.42,3.42,0,1,0,0,6.83h58.06a13.66,13.66,0,1,1,0,27.32Z"/><path class="cls-1" d="M841.28,657.13H783.67a22.7,22.7,0,0,1,0-45.39h50.62a14,14,0,1,1,0,27.93H787.16a5.24,5.24,0,1,1,0-10.47h47.13a3.49,3.49,0,0,0,0-7H783.67a12.22,12.22,0,1,0,0,24.44h57.61a5.24,5.24,0,0,1,0,10.47Z"/></g></g></svg>